<?xml version="1.0" ?>
<!-- Uploaded to: SVG Repo, www.svgrepo.com, Generator: SVG Repo Mixer Tools -->
<svg fill="#000000" width="800px" height="800px" viewBox="0 0 64 64" xmlns="http://www.w3.org/2000/svg">
<g id="kiss">
<path d="M7.7,14.4561a1,1,0,0,0-1.4141,0l-.7671.767-.767-.767A1,1,0,0,0,3.3379,15.87l.7671.7671-.7671.7671A1,1,0,1,0,4.752,18.8184l.767-.7671.7671.7671A1,1,0,1,0,7.7,17.4043l-.7671-.7671L7.7,15.87A1,1,0,0,0,7.7,14.4561Z"/>
<path d="M57,54a3,3,0,1,0,3,3A3.0033,3.0033,0,0,0,57,54Zm0,4a1,1,0,1,1,1-1A1.0006,1.0006,0,0,1,57,58Z"/>
<circle cx="60" cy="46" r="1"/>
<path d="M53.3252,21.26a4.9785,4.9785,0,0,0,.5137-.4339,5.2334,5.2334,0,0,0-3.1075-8.9A5.2339,5.2339,0,0,0,41.83,8.8184,7.02,7.02,0,0,0,40.3533,11.17,24.0169,24.0169,0,1,0,53.3252,21.26ZM33,56a22,22,0,1,1,6.7769-42.9172c-.6451,3.0508-.27,6.54.7514,8.2424a.9937.9937,0,0,0,.3428.3428,13.212,13.212,0,0,0,6.1045,1.2627,13.5021,13.5021,0,0,0,4.5831-.7266A21.9858,21.9858,0,0,1,33,56Z"/>
<path d="M32,36a1,1,0,0,0,0,2,1,1,0,0,1,0,2,1,1,0,0,0,0,2,1,1,0,0,1,0,2,1,1,0,0,0,0,2,2.9869,2.9869,0,0,0,2.22-5A2.9869,2.9869,0,0,0,32,36Z"/>
<path d="M24.9863,29.3145a3.1122,3.1122,0,0,0-2.93,2.0712,1,1,0,0,0,1.8868.6661,1.1073,1.1073,0,0,1,2.1015.0429,1,1,0,1,0,1.91-.59A3.0913,3.0913,0,0,0,24.9863,29.3145Z"/>
<path d="M40.9863,29.3145a3.1122,3.1122,0,0,0-2.93,2.0712,1,1,0,0,0,1.8868.6661,1.1073,1.1073,0,0,1,2.1015.0429,1,1,0,1,0,1.91-.59A3.0913,3.0913,0,0,0,40.9863,29.3145Z"/>
</g>
</svg>